<svg
                                xmlns="http://www.w3.org/2000/svg"
                                viewBox="12 286 970 180"
                            >
                                <path
                                    fill="currentColor" stroke="currentColor" stroke-width="1"
                                    d="M 85.56,466.00
                                    C 127.73,466.00 155.59,444.92 155.59,413.58
                                        155.59,385.53 136.52,368.48 95.61,357.22
                                        69.50,349.70 62.22,344.44 62.22,335.92
                                        62.22,327.41 71.27,322.16 85.56,322.16
                                        101.88,322.16 120.20,328.41 132.25,337.69
                                        132.25,337.69 151.08,307.59 151.08,307.59
                                        132.75,294.05 109.41,286.00 84.06,286.00
                                        43.39,286.00 19.55,306.84 19.55,336.42
                                        19.55,364.98 37.88,381.27 76.53,391.53
                                        102.89,398.80 112.17,404.56 112.17,413.83
                                        112.17,423.59 102.12,429.11 84.56,429.11
                                        65.48,429.11 48.17,423.34 30.84,411.33
                                        30.84,411.33 12.27,442.41 12.27,442.41
                                        32.09,457.47 58.45,466.00 85.56,466.00 Z
                                    M 210.72,464.00
                                    C 210.72,464.00 253.89,464.00 253.89,464.00
                                        253.89,464.00 253.89,327.67 253.89,327.67
                                        253.89,327.67 305.09,327.67 305.09,327.67
                                        305.09,327.67 305.09,288.00 305.09,288.00
                                        305.09,288.00 159.77,288.00 159.77,288.00
                                        159.77,288.00 159.77,327.67 159.77,327.67
                                        159.77,327.67 210.72,327.67 210.72,327.67
                                        210.72,327.67 210.72,464.00 210.72,464.00 Z
                                    M 402.91,467.00
                                    C 457.38,467.00 496.53,428.61 496.53,376.02
                                        496.53,323.41 457.38,285.00 402.91,285.00
                                        348.94,285.00 309.28,323.41 309.28,376.02
                                        309.28,428.61 348.94,467.00 402.91,467.00 Z
                                    M 353.45,376.02
                                    C 353.45,345.70 374.05,324.42 402.91,324.42
                                        432.02,324.42 452.61,345.70 452.61,376.02
                                        452.61,406.31 432.02,427.59 402.91,427.59
                                        374.05,427.59 353.45,406.31 353.45,376.02 Z
                                    M 523.81,464.00
                                    C 523.81,464.00 641.28,464.00 641.28,464.00
                                        641.28,464.00 641.28,424.09 641.28,424.09
                                        641.28,424.09 566.98,424.09 566.98,424.09
                                        566.98,424.09 566.98,288.00 566.98,288.00
                                        566.98,288.00 523.81,288.00 523.81,288.00
                                        523.81,288.00 523.81,464.00 523.81,464.00 Z
                                    M 665.81,464.00
                                    C 665.81,464.00 708.98,464.00 708.98,464.00
                                        708.98,464.00 708.98,288.00 708.98,288.00
                                        708.98,288.00 665.81,288.00 665.81,288.00
                                        665.81,288.00 665.81,464.00 665.81,464.00 Z
                                    M 744.81,464.00
                                    C 744.81,464.00 786.23,464.00 786.23,464.00
                                        786.23,464.00 786.23,360.17 786.23,360.17
                                        786.23,360.17 864.30,464.00 864.30,464.00
                                        864.30,464.00 899.44,464.00 899.44,464.00
                                        899.44,464.00 899.44,288.00 899.44,288.00
                                        899.44,288.00 858.02,288.00 858.02,288.00
                                        858.02,288.00 858.02,392.09 858.02,392.09
                                        858.02,392.09 779.70,288.00 779.70,288.00
                                        779.70,288.00 744.81,288.00 744.81,288.00
                                        744.81,288.00 744.81,464.00 744.81,464.00 Z
                                    M 934.81,464.00
                                    C 934.81,464.00 977.98,464.00 977.98,464.00
                                        977.98,464.00 977.98,288.00 977.98,288.00
                                        977.98,288.00 934.81,288.00 934.81,288.00
                                        934.81,288.00 934.81,464.00 934.81,464.00 Z"
                                />
                            </svg>